<svg xmlns="http://www.w3.org/2000/svg" width="256" height="256" viewBox="0 0 256 256"><path fill="#61DAFB" d="M128 2a126 126 0 1 0 0 252a126 126 0 0 0 0-252Zm0 234.8a108.8 108.8 0 1 1 0-217.6a108.8 108.8 0 0 1 0 217.6Z"/><path fill="#61DAFB" d="M128 48.7a79.3 79.3 0 1 0 0 158.6a79.3 79.3 0 0 0 0-158.6Zm0 141.4a62.1 62.1 0 1 1 0-124.2a62.1 62.1 0 0 1 0 124.2Z"/><path fill="#61DAFB" d="M128 79.3a48.7 48.7 0 1 0 0 97.4a48.7 48.7 0 0 0 0-97.4Zm0 80.2a31.5 31.5 0 1 1 0-63a31.5 31.5 0 0 1 0 63Z"/></svg>